<?xml version="1.0" encoding="UTF-8"?>
<svg version="1.1" xmlns="http://www.w3.org/2000/svg" width="256" height="256">
<path d="M0 0 C84.48 0 168.96 0 256 0 C256 84.48 256 168.96 256 256 C171.52 256 87.04 256 0 256 C0 171.52 0 87.04 0 0 Z " fill="#000000" transform="translate(0,0)"/>
<path d="M0 0 C1.02167833 -0.00048214 2.04335667 -0.00096428 3.09599495 -0.00146103 C6.39134113 0.001516 9.68577352 0.03193673 12.98095703 0.06347656 C15.02009648 0.06936035 17.05924197 0.07343943 19.09838867 0.07568359 C26.64527464 0.09662437 34.19203114 0.15246947 41.73876953 0.20410156 C58.61001953 0.28660156 75.48126953 0.36910156 92.86376953 0.45410156 C92.86376953 37.74410156 92.86376953 75.03410156 92.86376953 113.45410156 C55.57376953 113.45410156 18.28376953 113.45410156 -20.13623047 113.45410156 C-20.21873047 96.58285156 -20.30123047 79.71160156 -20.38623047 62.32910156 C-20.42264648 57.00640137 -20.4590625 51.68370117 -20.49658203 46.19970703 C-20.51464844 39.6887207 -20.51464844 39.6887207 -20.51800537 36.63845825 C-20.52413865 34.51285451 -20.53818835 32.3872645 -20.55853271 30.26174927 C-20.58784307 27.03769843 -20.59185354 23.81449629 -20.59033203 20.59033203 C-20.60472446 19.64697935 -20.6191169 18.70362667 -20.63394547 17.73168755 C-20.59870355 12.14728508 -20.0149392 8.77887138 -16.13623047 4.45410156 C-11.00132254 -0.15118682 -6.55694288 -0.1000372 0 0 Z " fill="#8BDEFD" transform="translate(30.13623046875,9.5458984375)"/>
<path d="M0 0 C37.29 0 74.58 0 113 0 C113 37.29 113 74.58 113 113 C96.12875 113.0825 79.2575 113.165 61.875 113.25 C56.5522998 113.28641602 51.22959961 113.32283203 45.74560547 113.36035156 C39.23461914 113.37841797 39.23461914 113.37841797 36.18435669 113.3817749 C34.05875295 113.38790818 31.93316293 113.40195789 29.80764771 113.42230225 C26.58359686 113.4516126 23.36039473 113.45562308 20.13623047 113.45410156 C19.19287779 113.468494 18.24952511 113.48288643 17.27758598 113.497715 C11.52704005 113.46142459 8.42251851 112.74616278 4 109 C0.88295929 105.45302264 -0.12601362 102.44907221 -0.12025452 97.766922 C-0.12163201 96.90634343 -0.12300951 96.04576487 -0.12442875 95.15910816 C-0.12083064 94.21432952 -0.11723253 93.26955088 -0.11352539 92.29614258 C-0.11364593 91.28473804 -0.11376646 90.27333349 -0.11389065 89.23128033 C-0.11314334 85.95234172 -0.10552331 82.67345971 -0.09765625 79.39453125 C-0.09618627 77.37219266 -0.0951659 75.34985369 -0.09460449 73.32751465 C-0.08935812 65.82250397 -0.07539696 58.31750143 -0.0625 50.8125 C-0.041875 34.044375 -0.02125 17.27625 0 0 Z " fill="#EDEDED" transform="translate(10,133)"/>
<path d="M0 0 C16.70625 -0.061875 33.4125 -0.12375 50.625 -0.1875 C55.89549316 -0.21481201 61.16598633 -0.24212402 66.59619141 -0.27026367 C73.04370117 -0.28381348 73.04370117 -0.28381348 76.06430054 -0.28633118 C78.16905623 -0.29093087 80.27380412 -0.30146753 82.37850952 -0.31672668 C85.57100104 -0.33871062 88.76301045 -0.34171719 91.95556641 -0.34057617 C93.35654288 -0.35676766 93.35654288 -0.35676766 94.78582191 -0.37328625 C99.94815204 -0.34861526 103.54298601 0.09766344 108 3 C111.38009591 6.74551169 113.1263617 9.13067966 113.12025452 14.15078735 C113.12232076 15.45218375 113.12232076 15.45218375 113.12442875 16.77987099 C113.11903159 18.21648866 113.11903159 18.21648866 113.11352539 19.68212891 C113.11364593 20.7033251 113.11376646 21.72452129 113.11389065 22.77666283 C113.11314225 26.09331795 113.10551732 29.40991738 113.09765625 32.7265625 C113.0961866 34.76977512 113.09516603 36.81298811 113.09460449 38.85620117 C113.08935423 46.44580651 113.07539312 54.0354038 113.0625 61.625 C113.041875 78.57875 113.02125 95.5325 113 113 C75.71 113 38.42 113 0 113 C0 75.71 0 38.42 0 0 Z " fill="#F9C43F" transform="translate(133,10)"/>
<path d="M0 0 C37.29 0 74.58 0 113 0 C113.061875 16.70625 113.12375 33.4125 113.1875 50.625 C113.22846802 58.53073975 113.22846802 58.53073975 113.27026367 66.59619141 C113.28381348 73.04370117 113.28381348 73.04370117 113.28633118 76.06430054 C113.29093087 78.16905623 113.30146753 80.27380412 113.31672668 82.37850952 C113.33871062 85.57100104 113.34171719 88.76301045 113.34057617 91.95556641 C113.3513705 92.88955072 113.36216482 93.82353504 113.37328625 94.78582191 C113.34860725 99.94982749 112.89801649 103.53898736 110 108 C106.07248628 111.63295019 103.09260149 113.12680517 97.766922 113.12025452 C96.47605415 113.12232076 96.47605415 113.12232076 95.15910816 113.12442875 C94.21432952 113.12083064 93.26955088 113.11723253 92.29614258 113.11352539 C90.77903576 113.11370619 90.77903576 113.11370619 89.23128033 113.11389065 C85.95234172 113.11314334 82.67345971 113.10552331 79.39453125 113.09765625 C77.37219266 113.09618627 75.34985369 113.0951659 73.32751465 113.09460449 C65.82250397 113.08935812 58.31750143 113.07539696 50.8125 113.0625 C34.044375 113.041875 17.27625 113.02125 0 113 C0 75.71 0 38.42 0 0 Z " fill="#CACACA" transform="translate(133,133)"/>
<path d="M0 0 C2 2 2 2 2.1953125 4.8203125 C2.17210937 5.91085938 2.14890625 7.00140625 2.125 8.125 C2.10695312 9.22070312 2.08890625 10.31640625 2.0703125 11.4453125 C2.04710937 12.28835937 2.02390625 13.13140625 2 14 C3.258125 14.309375 4.51625 14.61875 5.8125 14.9375 C8.26177394 15.53978048 10.60265923 16.20088641 13 17 C14.69906889 15.78219293 14.69906889 15.78219293 16.3125 14.0625 C18.96118302 11.63313468 19.6716053 11.04256968 23.375 10.5625 C26 11 26 11 27 12 C27.4375 14.5625 27.4375 14.5625 27 18 C25.98555729 19.32974247 24.91718722 20.61922328 23.8125 21.875 C22.09104429 23.81998188 22.09104429 23.81998188 21 26 C21.37833336 29.21309199 22.44187883 31.09150716 24 34 C24.67546875 34.03738281 25.3509375 34.07476562 26.046875 34.11328125 C26.93890625 34.17902344 27.8309375 34.24476562 28.75 34.3125 C30.07257813 34.39951172 30.07257813 34.39951172 31.421875 34.48828125 C34.36737974 35.07291931 35.83139051 35.94578964 38 38 C38.5 40.5 38.5 40.5 38 43 C35.0440942 45.79997499 32.76090384 46.42362475 28.75 46.6875 C27.41195312 46.78611328 27.41195312 46.78611328 26.046875 46.88671875 C25.03367188 46.94279297 25.03367188 46.94279297 24 47 C22.51060896 49.95865517 21.36473507 52.6909543 21 56 C22.26751102 58.16914257 23.74882608 59.62625311 25.5546875 61.36328125 C27 63 27 63 27.4375 66.375 C27 69 27 69 26 70 C22.72006383 70.5599891 20.68009435 70.41880137 17.82421875 68.66015625 C15.83347625 67.1573755 13.89767796 65.61832435 12 64 C11.071875 64.495 10.14375 64.99 9.1875 65.5 C6 67 6 67 3 67 C3.05220703 68.01320312 3.05220703 68.01320312 3.10546875 69.046875 C3.13253906 69.93890625 3.15960938 70.8309375 3.1875 71.75 C3.22230469 72.63171875 3.25710937 73.5134375 3.29296875 74.421875 C2.94429387 77.49021392 2.12840853 78.79575743 0 81 C-2.5 81.5 -2.5 81.5 -5 81 C-7.12840853 78.79575743 -7.94429387 77.49021392 -8.29296875 74.421875 C-8.25816406 73.54015625 -8.22335938 72.6584375 -8.1875 71.75 C-8.14689453 70.41195312 -8.14689453 70.41195312 -8.10546875 69.046875 C-8.05326172 68.03367188 -8.05326172 68.03367188 -8 67 C-8.721875 66.87625 -9.44375 66.7525 -10.1875 66.625 C-12.95721894 66.0095069 -15.3970354 65.11555626 -18 64 C-18.43570313 64.433125 -18.87140625 64.86625 -19.3203125 65.3125 C-24.22603762 69.89967154 -24.22603762 69.89967154 -28.375 70.4375 C-31 70 -31 70 -32 69 C-32.5599891 65.72006383 -32.41880137 63.68009435 -30.66015625 60.82421875 C-29.1573755 58.83347625 -27.61832435 56.89767796 -26 55 C-26.495 54.071875 -26.99 53.14375 -27.5 52.1875 C-29 49 -29 49 -29 46 C-30.13888672 46.05220703 -30.13888672 46.05220703 -31.30078125 46.10546875 C-32.29464844 46.13253906 -33.28851563 46.15960938 -34.3125 46.1875 C-35.29863281 46.22230469 -36.28476563 46.25710937 -37.30078125 46.29296875 C-40 46 -40 46 -41.8359375 44.6484375 C-43.46984593 42.33464771 -43.35458018 40.76572542 -43 38 C-41 36 -41 36 -38.1796875 35.8046875 C-37.08914062 35.82789063 -35.99859375 35.85109375 -34.875 35.875 C-33.77929688 35.89304688 -32.68359375 35.91109375 -31.5546875 35.9296875 C-30.71164063 35.95289063 -29.86859375 35.97609375 -29 36 C-28.87625 35.113125 -28.7525 34.22625 -28.625 33.3125 C-28.05587264 30.29612498 -27.23385564 27.79673946 -26 25 C-26.51691406 24.48050781 -27.03382813 23.96101563 -27.56640625 23.42578125 C-28.22511719 22.72839844 -28.88382813 22.03101562 -29.5625 21.3125 C-30.22378906 20.62800781 -30.88507813 19.94351563 -31.56640625 19.23828125 C-33 17 -33 17 -32.83984375 14.35546875 C-32 12 -32 12 -30 10 C-25.98357354 10 -24.0722149 11.73366716 -21.1875 14.25 C-19.21421628 15.94850587 -19.21421628 15.94850587 -17 17 C-13.78655786 16.61679566 -11.90995445 15.55890417 -9 14 C-8.96261719 13.24074219 -8.92523438 12.48148438 -8.88671875 11.69921875 C-8.82097656 10.70535156 -8.75523437 9.71148437 -8.6875 8.6875 C-8.60048828 7.20830078 -8.60048828 7.20830078 -8.51171875 5.69921875 C-7.54464761 0.59810302 -4.99029084 -0.63978088 0 0 Z " fill="#090602" transform="translate(192,26)"/>
<path d="M0 0 C4.09326963 2.92782481 7.20708372 7.31919563 8.0390625 12.3203125 C8.12929687 13.04605469 8.21953125 13.77179687 8.3125 14.51953125 C9.32161504 19.57344626 11.91759885 21.74289348 15.91015625 24.796875 C17.6875 26.20703125 17.6875 26.20703125 18.6875 28.20703125 C19.11761819 32.41722663 19.1574635 36.0939598 17.5 40.01953125 C12.63930106 45.88589203 12.63930106 45.88589203 8.315979 46.597229 C5.30059598 46.77065228 2.30948667 46.81374986 -0.7109375 46.80859375 C-2.37342026 46.82144913 -2.37342026 46.82144913 -4.06948853 46.83456421 C-6.41120678 46.84603686 -8.7529963 46.84706151 -11.09472656 46.83837891 C-14.66856204 46.83206471 -18.23907465 46.8789622 -21.8125 46.9296875 C-24.09114167 46.93423449 -26.36979221 46.93564001 -28.6484375 46.93359375 C-29.71218597 46.95201324 -30.77593445 46.97043274 -31.87191772 46.9894104 C-38.04955058 46.9127885 -41.59553346 46.13885381 -46.09365845 41.78695679 C-49.13207404 37.84840516 -48.75379028 32.9280046 -48.3125 28.20703125 C-46.68340882 23.89473108 -44.17893932 22.19209605 -40.15625 20.02734375 C-38.3125 19.20703125 -38.3125 19.20703125 -35 18.39453125 C-34.113125 18.00265625 -33.22625 17.61078125 -32.3125 17.20703125 C-31.0965433 13.95385261 -31.0965433 13.95385261 -30.3125 10.20703125 C-27.814176 4.52364017 -24.4883615 1.02180925 -19.125 -2.04296875 C-12.3318622 -3.85447216 -6.14305131 -3.5050071 0 0 Z " fill="#EDEDED" transform="translate(81.3125,44.79296875)"/>
<path d="M0 0 C8.86917013 5.61651073 13.81488968 12.4783748 16.83203125 22.47265625 C18.11866781 25.93049201 20.17896504 27.63650791 22.83203125 30.16015625 C27.21318533 36.88835716 27.50679982 42.15665125 26.83203125 50.16015625 C25.06646232 56.20531075 21.3349216 61.05272628 15.91015625 64.31640625 C10.74150631 67.03674832 6.06585735 68.25581152 0.20043945 68.35302734 C-0.68786057 68.36909027 -1.57616058 68.3851532 -2.49137878 68.40170288 C-6.54396377 68.44664344 -10.59639343 68.48721792 -14.64916992 68.51025391 C-16.77786207 68.52678681 -18.90649932 68.55404139 -21.03491211 68.59228516 C-24.12512625 68.64742902 -27.2140457 68.66898537 -30.3046875 68.68359375 C-31.24358322 68.70626312 -32.18247894 68.7289325 -33.14982605 68.75228882 C-41.40525111 68.72626373 -47.63385201 66.00281536 -54.04296875 60.84765625 C-59.32296126 54.17001866 -60.8557338 48.89940671 -60.546875 40.28125 C-59.67335982 33.08600642 -56.47397142 28.88185842 -50.94921875 24.38671875 C-47.89831248 22.2858754 -45.92623501 21.16015625 -42.16796875 21.16015625 C-42.04421875 20.61488281 -41.92046875 20.06960937 -41.79296875 19.5078125 C-39.43699545 10.89378513 -34.2957309 4.64772803 -26.60546875 0.09765625 C-18.82423501 -3.37804167 -7.82788422 -3.66665601 0 0 Z M-29.04296875 14.84765625 C-31.31856007 18.39490155 -32.07547422 21.1009608 -32.7109375 25.20703125 C-33.16796875 27.16015625 -33.16796875 27.16015625 -35.16796875 29.16015625 C-36.59064239 29.64369758 -38.03126338 30.07564705 -39.48046875 30.47265625 C-43.79992398 31.83596257 -46.25126118 33.6054189 -49.16796875 37.16015625 C-50.89371991 40.61165857 -50.52901069 44.37906245 -50.16796875 48.16015625 C-48.39900429 52.34980891 -46.02968152 54.79153362 -42.16796875 57.16015625 C-38.3729856 57.78456308 -34.60914703 57.76827328 -30.76953125 57.76171875 C-29.66120941 57.770289 -28.55288757 57.77885925 -27.41098022 57.78768921 C-25.06926197 57.79916186 -22.72747245 57.80018651 -20.38574219 57.79150391 C-16.81190671 57.78518971 -13.2413941 57.8320872 -9.66796875 57.8828125 C-7.38932708 57.88735949 -5.11067654 57.88876501 -2.83203125 57.88671875 C-1.76828278 57.90513824 -0.7045343 57.92355774 0.39144897 57.9425354 C6.56908183 57.8659135 10.11506471 57.09197881 14.6131897 52.74008179 C17.20336364 49.38256419 17.28051307 45.59312027 17.25390625 41.515625 C16.51611503 37.39629069 13.89761556 34.85279843 10.83203125 32.16015625 C9.84203125 31.50015625 8.85203125 30.84015625 7.83203125 30.16015625 C7.0234375 27.76953125 7.0234375 27.76953125 6.39453125 24.91015625 C4.82567457 18.72368534 2.96700635 14.7722803 -2.23046875 10.84765625 C-11.73600413 5.38702954 -21.3387488 7.64588543 -29.04296875 14.84765625 Z " fill="#070909" transform="translate(83.16796875,33.83984375)"/>
<path d="M0 0 C3.48961996 0.49483533 4.59436581 1.81210868 6.95703125 4.375 C7.65441406 5.1175 8.35179687 5.86 9.0703125 6.625 C9.84955078 7.49125 9.84955078 7.49125 10.64453125 8.375 C11.77041139 7.41770084 12.89520275 6.45912105 14.01953125 5.5 C14.64601562 4.96632812 15.2725 4.43265625 15.91796875 3.8828125 C17.20289776 2.76067993 18.438251 1.58128025 19.64453125 0.375 C22.14453125 0.125 22.14453125 0.125 24.64453125 0.375 C26.64453125 2.375 26.64453125 2.375 26.76953125 5.4375 C26.16739892 9.21240655 24.36696295 10.79405668 21.64453125 13.375 C16.63405901 18.51968132 16.68901004 23.61031688 16.58203125 30.41015625 C16.60265625 31.38855469 16.62328125 32.36695313 16.64453125 33.375 C25.26603201 33.66587384 31.04744764 33.67938009 37.76953125 27.8125 C38.59710938 26.98621094 39.4246875 26.15992188 40.27734375 25.30859375 C42.64453125 23.375 42.64453125 23.375 45.32421875 22.97265625 C47.64453125 23.375 47.64453125 23.375 49.64453125 25.375 C50.01953125 27.73046875 50.01953125 27.73046875 49.64453125 30.375 C47.89453125 32.61328125 47.89453125 32.61328125 45.64453125 34.6875 C44.90203125 35.38488281 44.15953125 36.08226562 43.39453125 36.80078125 C42.52828125 37.58001953 42.52828125 37.58001953 41.64453125 38.375 C42.60183041 39.50088014 43.5604102 40.6256715 44.51953125 41.75 C45.05320312 42.37648437 45.586875 43.00296875 46.13671875 43.6484375 C47.25885132 44.93336651 48.438251 46.16871975 49.64453125 47.375 C49.89453125 49.875 49.89453125 49.875 49.64453125 52.375 C47.64453125 54.375 47.64453125 54.375 44.45703125 54.4375 C39.9405619 53.17881182 38.18293004 51.38355517 35.125 47.96875 C32.03390075 44.64112864 28.28334202 45.05243769 24.01953125 44.8125 C22.95992187 44.74772461 22.95992187 44.74772461 21.87890625 44.68164062 C20.13434588 44.57555249 18.38946428 44.47477111 16.64453125 44.375 C16.35365741 52.99650076 16.34015116 58.77791639 22.20703125 65.5 C23.03332031 66.32757813 23.85960937 67.15515625 24.7109375 68.0078125 C26.64453125 70.375 26.64453125 70.375 27.046875 73.0546875 C26.64453125 75.375 26.64453125 75.375 24.64453125 77.375 C22.2890625 77.75 22.2890625 77.75 19.64453125 77.375 C17.40625 75.625 17.40625 75.625 15.33203125 73.375 C14.63464844 72.6325 13.93726563 71.89 13.21875 71.125 C12.43951172 70.25875 12.43951172 70.25875 11.64453125 69.375 C10.51865111 70.33229916 9.39385975 71.29087895 8.26953125 72.25 C7.64304688 72.78367187 7.0165625 73.31734375 6.37109375 73.8671875 C5.08616474 74.98932007 3.8508115 76.16871975 2.64453125 77.375 C0.14453125 77.625 0.14453125 77.625 -2.35546875 77.375 C-4.35546875 75.375 -4.35546875 75.375 -4.48046875 72.3125 C-3.87833642 68.53759345 -2.07790045 66.95594332 0.64453125 64.375 C5.65500349 59.23031868 5.60005246 54.13968312 5.70703125 47.33984375 C5.68640625 46.36144531 5.66578125 45.38304687 5.64453125 44.375 C-2.97696951 44.08412616 -8.75838514 44.07061991 -15.48046875 49.9375 C-16.30804688 50.76378906 -17.135625 51.59007812 -17.98828125 52.44140625 C-20.35546875 54.375 -20.35546875 54.375 -23.03515625 54.77734375 C-25.35546875 54.375 -25.35546875 54.375 -27.35546875 52.375 C-27.73046875 50.01953125 -27.73046875 50.01953125 -27.35546875 47.375 C-25.60546875 45.13671875 -25.60546875 45.13671875 -23.35546875 43.0625 C-22.61296875 42.36511719 -21.87046875 41.66773438 -21.10546875 40.94921875 C-20.23921875 40.16998047 -20.23921875 40.16998047 -19.35546875 39.375 C-20.31276791 38.24911986 -21.2713477 37.1243285 -22.23046875 36 C-22.76414062 35.37351563 -23.2978125 34.74703125 -23.84765625 34.1015625 C-24.96978882 32.81663349 -26.1491885 31.58128025 -27.35546875 30.375 C-27.60546875 27.875 -27.60546875 27.875 -27.35546875 25.375 C-25.35546875 23.375 -25.35546875 23.375 -22.29296875 23.25 C-18.5180622 23.85213233 -16.93641207 25.6525683 -14.35546875 28.375 C-9.21078743 33.38547224 -4.12015187 33.33052121 2.6796875 33.4375 C4.14728516 33.4065625 4.14728516 33.4065625 5.64453125 33.375 C5.99018069 22.73168561 5.99018069 22.73168561 1.20703125 13.625 C0.02816781 12.53227481 -1.15835602 11.44770148 -2.35546875 10.375 C-4.5046266 7.15126323 -4.73833678 6.10796326 -4.35546875 2.375 C-2.35546875 0.375 -2.35546875 0.375 0 0 Z " fill="#090909" transform="translate(55.35546875,150.625)"/>
<path d="M0 0 C5.45721008 0.4115773 5.45721008 0.4115773 7.765625 2.9140625 C11.64217823 9.99387288 15.03284408 17.25109446 18.3125 24.625 C18.74530273 25.59002441 19.17810547 26.55504883 19.62402344 27.54931641 C23.49059977 36.4875368 26.72852737 45.42240496 23.28125 54.99609375 C20.51561231 61.30222452 16.35395874 65.36028684 10.1875 68.375 C3.2569336 69.73393459 -2.92379527 69.91960534 -9.18359375 66.328125 C-14.48034563 62.45523115 -18.23751276 57.32421893 -20 51 C-21.49568915 35.4199047 -9.7368998 11.95391698 0 0 Z " fill="#040505" transform="translate(187,155)"/>
<path d="M0 0 C4.28700252 2.21773507 6.86071375 4.95409255 8.8046875 9.30859375 C9.54079148 14.76486961 9.75078934 20.28053031 7.2421875 25.30859375 C3.55871783 29.84209488 0.63093436 31.90155276 -5.0703125 32.72265625 C-10.91409218 33.00023578 -15.36044822 32.73468767 -19.859375 28.7734375 C-24.42035284 23.77236531 -24.78379237 18.76703539 -24.61328125 12.22265625 C-24.00140771 7.95669684 -22.40620841 5.15479531 -19.1953125 2.30859375 C-13.4787712 -1.79261354 -6.68351163 -2.10494939 0 0 Z " fill="#FB4D4D" transform="translate(197.1953125,50.69140625)"/>
<path d="M0 0 C3.29923614 3.82670022 5.0666585 8.29085942 7.0625 12.875 C7.41376953 13.66519531 7.76503906 14.45539063 8.12695312 15.26953125 C13.74549423 28.03604619 13.74549423 28.03604619 13 34 C10.71481238 38.31646551 8.54447291 41.0976625 4 43 C-0.26044487 43.54223844 -2.42096006 43.30065535 -6.25 41.3125 C-9.13668817 38.88505768 -10.66840397 37.52481301 -12 34 C-12.51402129 26.42986821 -9.07772833 19.70912208 -6 13 C-5.72897461 12.40445313 -5.45794922 11.80890625 -5.17871094 11.1953125 C-3.47522406 7.45277354 -1.74710508 3.72235447 0 0 Z " fill="#88D9F7" transform="translate(189,171)"/>
<path d="M0 0 C2.5625 0.3125 2.5625 0.3125 4.19995117 1.35546875 C6.28316093 4.34758654 5.97082062 7.42221297 5.92578125 10.9375 C5.92627975 11.68080566 5.92677826 12.42411133 5.92729187 13.18994141 C5.92495333 14.76011837 5.91523768 16.33029921 5.89868164 17.90039062 C5.87508614 20.30372642 5.87812226 22.70595279 5.88476562 25.109375 C5.87918872 26.63542328 5.87207877 28.16146689 5.86328125 29.6875 C5.86464836 30.76572021 5.86464836 30.76572021 5.86604309 31.86572266 C5.8135669 35.5586273 5.66584783 37.15747826 3.5625 40.3125 C0.5625 40.625 0.5625 40.625 -2.4375 40.3125 C-4.98315412 37.76684588 -4.6847401 36.12074286 -4.71539307 32.6484375 C-4.7113446 31.87757813 -4.70729614 31.10671875 -4.703125 30.3125 C-4.70503845 29.52101562 -4.7069519 28.72953125 -4.70892334 27.9140625 C-4.71028518 26.2395801 -4.70658882 24.56508715 -4.69824219 22.890625 C-4.6875424 20.32267619 -4.69813725 17.75542697 -4.7109375 15.1875 C-4.7096159 13.56249845 -4.70705351 11.93749734 -4.703125 10.3125 C-4.70717346 9.54164063 -4.71122192 8.77078125 -4.71539307 7.9765625 C-4.65024025 0.59618465 -4.65024025 0.59618465 0 0 Z " fill="#080808" transform="translate(233.4375,175.6875)"/>
<path d="M0 0 C0.33 0 0.66 0 1 0 C1 5.61 1 11.22 1 17 C-4.61 17 -10.22 17 -16 17 C-15.01 16.34 -14.02 15.68 -13 15 C-6.87133536 10.82193704 -2.41414473 7.24243418 0 0 Z " fill="#FFFFFF" transform="translate(255,239)"/>
<path d="M0 0 C0.99 1.485 0.99 1.485 2 3 C5.48059168 8.1055667 8.54922037 11.85066066 14 15 C14.99 15.66 15.98 16.32 17 17 C11.39 17 5.78 17 0 17 C0 11.39 0 5.78 0 0 Z " fill="#FFFFFF" transform="translate(0,239)"/>
<path d="M0 0 C5.61 0 11.22 0 17 0 C17 5.61 17 11.22 17 17 C16.34 16.01 15.68 15.02 15 14 C11.51940832 8.8944333 8.45077963 5.14933934 3 2 C2.01 1.34 1.02 0.68 0 0 Z " fill="#FFFFFF" transform="translate(239,0)"/>
<path d="M0 0 C5.61 0 11.22 0 17 0 C16.01 0.66 15.02 1.32 14 2 C8.8944333 5.48059168 5.14933934 8.54922037 2 14 C1.34 14.99 0.68 15.98 0 17 C0 11.39 0 5.78 0 0 Z " fill="#FFFFFF" transform="translate(0,0)"/>
<path d="M0 0 C3 0.25 3 0.25 5 2.25 C5.25 4.75 5.25 4.75 5 7.25 C3 9.25 3 9.25 0 9.5 C-3 9.25 -3 9.25 -5 7.25 C-5.25 4.75 -5.25 4.75 -5 2.25 C-3 0.25 -3 0.25 0 0 Z " fill="#101010" transform="translate(79,198.75)"/>
<path d="M0 0 C3 0.25 3 0.25 5 2.25 C5.25 4.75 5.25 4.75 5 7.25 C3 9.25 3 9.25 0 9.5 C-3 9.25 -3 9.25 -5 7.25 C-5.25 4.75 -5.25 4.75 -5 2.25 C-3 0.25 -3 0.25 0 0 Z " fill="#101010" transform="translate(53,198.75)"/>
<path d="M0 0 C2.4375 0.8125 2.4375 0.8125 4.4375 2.8125 C4.10778521 6.10964793 3.8148161 7.4351839 1.4375 9.8125 C-1.6875 9.4375 -1.6875 9.4375 -4.5625 8.8125 C-5.89091008 3.37809513 -5.89091008 3.37809513 -4.4375 0.875 C-2.5625 -0.1875 -2.5625 -0.1875 0 0 Z " fill="#0F0F0F" transform="translate(79.5625,171.1875)"/>
<path d="M0 0 C3.125 0.375 3.125 0.375 6 1 C7.32841008 6.43440487 7.32841008 6.43440487 5.875 8.9375 C4 10 4 10 1.4375 9.8125 C-1 9 -1 9 -3 7 C-2.67028521 3.70285207 -2.3773161 2.3773161 0 0 Z " fill="#0F0F0F" transform="translate(51,171)"/>
<path d="M0 0 C1 1 1 1 1.1875 3.9375 C1 7 1 7 -1 9 C-3.5 9.25 -3.5 9.25 -6 9 C-6.66 8.34 -7.32 7.68 -8 7 C-7.75 3.4375 -7.75 3.4375 -7 0 C-4.31633121 -1.3418344 -2.84719317 -0.73004953 0 0 Z " fill="#0A0A0A" transform="translate(237,162)"/>
</svg>
